<svg width="32" height="32" viewBox="0 0 32 32" fill="none" xmlns="http://www.w3.org/2000/svg">
<g clip-path="url(#clip0_6_250)">
<path d="M15 15C15.2652 15 15.5196 15.1054 15.7071 15.2929C15.8946 15.4804 16 15.7348 16 16V21C16 21.2652 16.1054 21.5196 16.2929 21.7071C16.4804 21.8946 16.7348 22 17 22" stroke="white" stroke-width="1.5" stroke-linecap="round" stroke-linejoin="round"/>
<path d="M15.5 11.75C16.1904 11.75 16.75 11.1904 16.75 10.5C16.75 9.80964 16.1904 9.25 15.5 9.25C14.8096 9.25 14.25 9.80964 14.25 10.5C14.25 11.1904 14.8096 11.75 15.5 11.75Z" fill="white"/>
<path d="M16 28C22.6274 28 28 22.6274 28 16C28 9.37258 22.6274 4 16 4C9.37258 4 4 9.37258 4 16C4 22.6274 9.37258 28 16 28Z" stroke="white" stroke-width="1.5" stroke-linecap="round" stroke-linejoin="round"/>
</g>
<defs>
<clipPath id="clip0_6_250">
<rect width="32" height="32" fill="white"/>
</clipPath>
</defs>
</svg>
