<svg width="146" height="113" viewBox="0 0 146 113" fill="none" xmlns="http://www.w3.org/2000/svg">
<path d="M18.2498 32.9583C16.5262 32.9583 15.0824 32.5063 13.9185 31.6023C12.7546 30.6983 12.1706 29.5809 12.1665 28.25V14.125C12.1665 12.791 12.7505 11.6735 13.9185 10.7727C15.0865 9.8718 16.5303 9.4198 18.2498 9.41666H36.4998C38.2234 9.41666 39.6693 9.86866 40.8373 10.7727C42.0053 11.6767 42.5872 12.7941 42.5832 14.125C42.5791 15.4559 41.9951 16.5749 40.8312 17.482C39.6672 18.3892 38.2234 18.8396 36.4998 18.8333H24.3332V28.25C24.3332 29.584 23.7492 30.703 22.5812 31.607C21.4132 32.511 19.9694 32.9615 18.2498 32.9583ZM18.2498 103.583C16.5262 103.583 15.0824 103.131 13.9185 102.227C12.7546 101.323 12.1706 100.206 12.1665 98.875V84.75C12.1665 83.416 12.7505 82.2985 13.9185 81.3977C15.0865 80.4968 16.5303 80.0448 18.2498 80.0417C19.9694 80.0385 21.4152 80.4905 22.5873 81.3977C23.7593 82.3048 24.3413 83.4222 24.3332 84.75V94.1667H36.4998C38.2234 94.1667 39.6693 94.6187 40.8373 95.5227C42.0053 96.4267 42.5872 97.5441 42.5832 98.875C42.5791 100.206 41.9951 101.325 40.8312 102.232C39.6672 103.139 38.2234 103.59 36.4998 103.583H18.2498ZM109.5 103.583C107.776 103.583 106.332 103.131 105.169 102.227C104.005 101.323 103.421 100.206 103.417 98.875C103.412 97.5441 103.996 96.4267 105.169 95.5227C106.341 94.6187 107.784 94.1667 109.5 94.1667H121.667V84.75C121.667 83.416 122.251 82.2985 123.419 81.3977C124.587 80.4968 126.03 80.0448 127.75 80.0417C129.469 80.0385 130.915 80.4905 132.087 81.3977C133.259 82.3048 133.841 83.4222 133.833 84.75V98.875C133.833 100.209 133.249 101.328 132.081 102.232C130.913 103.136 129.469 103.586 127.75 103.583H109.5ZM127.75 32.9583C126.026 32.9583 124.582 32.5063 123.419 31.6023C122.255 30.6983 121.671 29.5809 121.667 28.25V18.8333H109.5C107.776 18.8333 106.332 18.3813 105.169 17.4773C104.005 16.5733 103.421 15.4559 103.417 14.125C103.412 12.7941 103.996 11.6767 105.169 10.7727C106.341 9.86866 107.784 9.41666 109.5 9.41666H127.75C129.473 9.41666 130.919 9.86866 132.087 10.7727C133.255 11.6767 133.837 12.7941 133.833 14.125V28.25C133.833 29.584 133.249 30.703 132.081 31.607C130.913 32.511 129.469 32.9615 127.75 32.9583ZM106.458 89.4583V82.3958H115.583V89.4583H106.458ZM106.458 75.3333V68.2708H115.583V75.3333H106.458ZM97.3332 82.3958V75.3333H106.458V82.3958H97.3332ZM88.2082 89.4583V82.3958H97.3332V89.4583H88.2082ZM79.0832 82.3958V75.3333H88.2082V82.3958H79.0832ZM97.3332 68.2708V61.2083H106.458V68.2708H97.3332ZM88.2082 75.3333V68.2708H97.3332V75.3333H88.2082ZM79.0832 68.2708V61.2083H88.2082V68.2708H79.0832ZM85.1665 51.7917C83.4429 51.7917 81.9991 51.3397 80.8352 50.4357C79.6712 49.5317 79.0872 48.4142 79.0832 47.0833V28.25C79.0832 26.916 79.6672 25.7985 80.8352 24.8977C82.0032 23.9968 83.447 23.5448 85.1665 23.5417H109.5C111.223 23.5417 112.669 23.9937 113.837 24.8977C115.005 25.8017 115.587 26.9191 115.583 28.25V47.0833C115.583 48.4174 114.999 49.5364 113.831 50.4404C112.663 51.3444 111.219 51.7948 109.5 51.7917H85.1665ZM36.4998 89.4583C34.7762 89.4583 33.3324 89.0063 32.1685 88.1023C31.0046 87.1983 30.4206 86.0809 30.4165 84.75V65.9167C30.4165 64.5826 31.0005 63.4652 32.1685 62.5643C33.3365 61.6635 34.7803 61.2115 36.4998 61.2083H60.8332C62.5568 61.2083 64.0026 61.6603 65.1706 62.5643C66.3386 63.4683 66.9206 64.5858 66.9165 65.9167V84.75C66.9165 86.084 66.3325 87.203 65.1645 88.107C63.9965 89.011 62.5527 89.4615 60.8332 89.4583H36.4998ZM36.4998 51.7917C34.7762 51.7917 33.3324 51.3397 32.1685 50.4357C31.0046 49.5317 30.4206 48.4142 30.4165 47.0833V28.25C30.4165 26.916 31.0005 25.7985 32.1685 24.8977C33.3365 23.9968 34.7803 23.5448 36.4998 23.5417H60.8332C62.5568 23.5417 64.0026 23.9937 65.1706 24.8977C66.3386 25.8017 66.9206 26.9191 66.9165 28.25V47.0833C66.9165 48.4174 66.3325 49.5364 65.1645 50.4404C63.9965 51.3444 62.5527 51.7948 60.8332 51.7917H36.4998ZM39.5415 82.3958H57.7915V68.2708H39.5415V82.3958ZM39.5415 44.7292H57.7915V30.6042H39.5415V44.7292ZM88.2082 44.7292H106.458V30.6042H88.2082V44.7292Z" fill="black"/>
</svg>
