<svg width="32" height="32" viewBox="0 0 32 32" fill="none" xmlns="http://www.w3.org/2000/svg">
<g clip-path="url(#clip0_5_241)">
<path d="M16 21C18.7614 21 21 18.7614 21 16C21 13.2386 18.7614 11 16 11C13.2386 11 11 13.2386 11 16C11 18.7614 13.2386 21 16 21Z" stroke="white" stroke-width="1.5" stroke-linecap="round" stroke-linejoin="round"/>
<path d="M5.17867 22.2613C4.62614 21.3096 4.20283 20.2885 3.91992 19.225L6.01742 16.6C5.99367 16.1987 5.99367 15.7963 6.01742 15.395L3.92117 12.77C4.2036 11.7064 4.62604 10.6849 5.17742 9.73251L8.51617 9.35751C8.78279 9.05713 9.06704 8.77288 9.36742 8.50626L9.74242 5.16876C10.6935 4.62001 11.7132 4.20008 12.7749 3.92001L15.3999 6.01751C15.8012 5.99376 16.2036 5.99376 16.6049 6.01751L19.2299 3.92126C20.2936 4.20369 21.315 4.62613 22.2674 5.17751L22.6424 8.51626C22.9428 8.78288 23.2271 9.06713 23.4937 9.36751L26.8312 9.74251C27.3837 10.6942 27.807 11.7153 28.0899 12.7788L25.9924 15.4038C26.0162 15.8051 26.0162 16.2074 25.9924 16.6088L28.0887 19.2338C27.8082 20.2971 27.3879 21.3185 26.8387 22.2713L23.4999 22.6463C23.2333 22.9466 22.9491 23.2309 22.6487 23.4975L22.2737 26.835C21.322 27.3875 20.3009 27.8109 19.2374 28.0938L16.6124 25.9963C16.2111 26.02 15.8087 26.02 15.4074 25.9963L12.7824 28.0925C11.7191 27.8121 10.6977 27.3917 9.74492 26.8425L9.36992 23.5038C9.06954 23.2371 8.78529 22.9529 8.51867 22.6525L5.17867 22.2613Z" stroke="white" stroke-width="1.5" stroke-linecap="round" stroke-linejoin="round"/>
</g>
<defs>
<clipPath id="clip0_5_241">
<rect width="32" height="32" fill="white"/>
</clipPath>
</defs>
</svg>
